# xmcd
#
# Track frame offsets:
#	150
#	13554
#	30143
#	44180
#	44846
#	62550
#	77248
#	90055
#	107048
#	121708
#	132857
#	151538
#	151843
#	167909
#	182325
#	196572
#
# Disc length: 2807 seconds
# Revision: 0
# Processed by: cddbd v1.5.2PL0 Copyright (c) Steve Scherf et al.
# Submitted via: dBpowerAMP V12.0
#
DISCID=b10af510
DTITLE=Various Artist - Hillcrest CD#78
DYEAR=2015
DGENRE=Country
TTITLE0=Robert Mizzell - John Deere Beer
TTITLE1=Don Allen - Do You Believe Me Now
TTITLE2=Andy Martin - Let It Burn
TTITLE3=Clelia ID
TTITLE4=Clelia Adams - The Captain And The Gypsy
TTITLE5=Dave Sheriff - Cryin' Thro' My Eyes
TTITLE6=Bonita Mercer - That Silver Haired Daddy Of Mine
TTITLE7=Brandon McPhee - Branded Man
TTITLE8=Sherry Kennedy - Walking On The Blue Side
TTITLE9=Butch Smith - Robbin' Trains
TTITLE10=Malia Camargo - God's Plan
TTITLE11=Dellean ID
TTITLE12=Dellean Comeau - Ain't No Barbi Doll
TTITLE13=Jeff Woolsey - If I Could Be Your Man
TTITLE14=Don Allen - Talkn' Dirty
TTITLE15=Katja Picker - My Life Starts With You
EXTD=
EXTT0=
EXTT1=
EXTT2=
EXTT3=
EXTT4=
EXTT5=
EXTT6=
EXTT7=
EXTT8=
EXTT9=
EXTT10=
EXTT11=
EXTT12=
EXTT13=
EXTT14=
EXTT15=
PLAYORDER=
